<?xml version="1.0" encoding="utf-8"?>
<!-- Generator: Adobe Illustrator 18.1.0, SVG Export Plug-In . SVG Version: 6.00 Build 0)  -->
<svg version="1.1" id="Layer_1" xmlns="http://www.w3.org/2000/svg" xmlns:xlink="http://www.w3.org/1999/xlink" x="0px" y="0px"
	 width="25px" height="27px" viewBox="0 0 25 27" enable-background="new 0 0 25 27" xml:space="preserve">
<path fill="none" stroke="#EC2456" stroke-width="2" stroke-miterlimit="10" d="M8,27L8,27l0-8c0-2.8,2.2-5,5-5h0c2.8,0,5,2.2,5,5v8
	"/>
<path fill="none" stroke="#EC2456" stroke-width="2" stroke-linecap="round" stroke-miterlimit="10" d="M8,19H6c-2.8,0-5-2.2-5-5v0
	c0-2.8,2.2-5,5-5h14c2.2,0,4-1.8,4-4v0c0-2.2-1.8-4-4-4H8"/>
<path fill="#EC2456" d="M15,21h-4v-1c0-1.1,0.9-2,2-2h0c1.1,0,2,0.9,2,2V21z"/>
</svg>
