<?xml version="1.0" encoding="utf-8"?>
<!-- Generator: Adobe Illustrator 18.1.0, SVG Export Plug-In . SVG Version: 6.00 Build 0)  -->
<svg version="1.1" id="Layer_1" xmlns="http://www.w3.org/2000/svg" xmlns:xlink="http://www.w3.org/1999/xlink" x="0px" y="0px"
	 width="173px" height="67px" viewBox="0 0 173 67" enable-background="new 0 0 173 67" xml:space="preserve">
<g>
	<path fill="#FFFFFF" d="M64.3,23.3c4.3-7.5,7.4-14.3,9.3-20.7c0.2-0.5,0.1-1.1-0.2-1.5c-0.3-0.5-0.9-0.7-1.5-0.7
		c-0.7,0-1.3,0.4-1.5,1.2c-2.5,8.4-6.6,16.9-12.2,25.3c-2.9,4.4-6.5,8.6-10.5,12.1c-2.5,2.2-6.3,5.2-9.7,5.2c-1.1,0-2.1-0.3-2.9-0.9
		c-2-1.4-2.6-4.2-3.1-6.6c-0.1-0.4-0.2-0.7-0.2-1.1c-0.6-2.6-1.4-6-4-8.1c-1-0.7-2.1-1.1-3.3-1.1c-4,0-8.3,4.2-10.9,6.7L13,33.5
		C8.3,38,4,43.6,0.2,50.1c-0.3,0.6-0.3,1.2,0,1.7c0.3,0.6,0.9,0.9,1.6,0.9c0,0,0,0,0,0c0.6,0,1-0.3,1.3-0.8
		c5.5-9.6,11.6-16.6,18-20.8c0.8-0.5,2-1.3,3.2-1.3c0.5,0,1,0.1,1.4,0.4c1.1,0.7,1.6,2.2,2.1,3.7c0.3,1,0.5,2,0.7,3
		c0.5,2.1,0.9,4.2,2,6.2c1.9,3.5,5,4.2,7.3,4.2c1.9,0,3.9-0.5,5.9-1.5c5.2-2.7,9.5-7.2,13.3-11.8C59.4,31.2,61.7,27.8,64.3,23.3z"/>
	<path fill="#FFFFFF" d="M138.3,46.7c-4.8-1.8-9.3-4.7-13.6-7.4c-1.1-0.7-2.3-1.5-3.5-2.2c5-3.3,10.2-6.3,15.9-7.9
		c1-0.3,1.4-1.2,1.2-2c-0.1-1-1-1.6-2-1.4c-6.7,1.9-12.6,5.5-18.2,9.4c-1.4-0.8-2.8-1.6-4.3-2.3c-4.5-2.1-8.4-2.5-11.7-1.3
		c-3.3,1.2-5.8,3.6-8.4,5.8l-0.9,0.9c-3.8,3.4-7.3,5.2-10.9,5.6c-0.4,0-0.7,0.1-1.1,0.1c-2.7,0-6.3-1.1-8.1-3.5
		c-0.3-0.4-0.5-0.9-0.7-1.3c4.4-1.9,7.6-3.7,10.4-5.8c1.1-0.8,2.6-2.2,2.8-4c0.2-1.8-1.5-3.3-3.3-3.7c-0.4-0.1-0.9-0.1-1.4-0.1
		c-3.9,0-7.6,3.3-9.8,6.4c-1.1,1.5-1.7,3.1-2,4.7c-1.6,0.7-3.3,1.3-4.9,2c-2.2,0.9-4.5,1.8-6.7,2.7c-0.7,0.3-1.1,1-0.9,1.8
		c0.2,1.1,1.4,1.8,2.4,1.3c2.2-1,4.6-1.9,6.9-2.7c1.2-0.4,2.3-0.9,3.5-1.4c0.4,1.5,1.3,2.8,2.6,3.9c2.3,2,5.8,3.1,9.5,3.1
		c0.2,0,0.4,0,0.6,0c3.7-0.1,7.5-1.7,11.4-4.7c1.1-0.9,2.2-1.9,3.3-2.8c1.7-1.5,3.4-3.1,5.3-4.2c1.3-0.8,2.7-1.2,4.3-1.2
		c2.6,0,5.2,1,7.1,1.9c0.7,0.3,1.3,0.6,1.9,1c-1,0.7-2,1.4-3,2.2l-1.9,1.4c-7.7,5.6-14.9,12.1-21.7,18.5c-1.4,1.3-2.8,2.6-4.2,3.8
		c-0.5,0.5-0.7,1.2-0.4,1.8c0.3,0.7,0.9,1.2,1.6,1.2c0.4,0,0.8-0.2,1.1-0.4c1.4-1.2,2.7-2.5,4.1-3.7c6.5-5.9,13.2-12.1,20.3-17.4
		l1.2-0.9c2-1.5,4.1-3,6.1-4.5c1.9,1.1,3.7,2.2,5.4,3.4c4.3,2.7,8.7,5.5,13.5,7.4c0.2,0.1,0.4,0.1,0.6,0.1c0.8,0,1.4-0.6,1.6-1.4
		C139.6,47.8,139.1,47,138.3,46.7z M77.1,30.4c1.4-0.9,2.6-1.4,3.6-1.4h0c0.4,0,0.6,0.1,0.9,0.3c-0.3,0.6-1.2,1.2-1.8,1.6L79.9,31
		c-1.3,1-2.8,1.7-4.5,2.6c-0.8,0.4-1.6,0.8-2.5,1.2C74,33,75.8,31.3,77.1,30.4z"/>
	<path fill="#FFFFFF" d="M170.3,22.7c-4.5,0.4-9,0.7-13.4,1.2c1.3-3,2.8-5.9,4.3-8.7c0.3-0.6,0.3-1.2,0-1.6
		c-0.4-0.6-1.1-0.9-1.8-0.7c-0.5,0.1-1,0.4-1.2,0.9c-1.9,3.5-3.7,7-5.2,10.7c-2,0.3-4,0.6-6,0.9c-1.1,0.2-1.6,1.2-1.4,2.1
		c0.1,0.9,0.9,1.5,1.8,1.3l0,0c1.4-0.2,2.8-0.5,4.2-0.7c-0.7,1.9-1.4,3.8-2,5.7c-1.1,3.7-1.8,6.7-2.2,9.6c-0.3,2.8-0.4,6.6,2.5,8.7
		c0.4,0.3,0.8,0.4,1.3,0.3c0.7-0.1,1.4-0.7,1.5-1.4c0.1-0.6-0.1-1.2-0.7-1.6c-1.9-1.3-1.4-4.3-1.1-6.5l0.1-0.4
		c0.5-3.4,1.5-6.7,2.3-9.2c0.6-1.9,1.4-3.9,2.1-5.8c4.9-0.6,9.8-1,15.2-1.4c0.1,0,0.1,0,0.1,0c1-0.2,1.5-1.1,1.4-1.9
		C172,23.4,171.3,22.6,170.3,22.7z"/>
</g>
</svg>
