<?xml version="1.0" encoding="utf-8"?>
<!-- Generator: Adobe Illustrator 18.1.0, SVG Export Plug-In . SVG Version: 6.00 Build 0)  -->
<svg version="1.1" id="Layer_1" xmlns="http://www.w3.org/2000/svg" xmlns:xlink="http://www.w3.org/1999/xlink" x="0px" y="0px"
	 width="28px" height="23px" viewBox="0 0 28 23" enable-background="new 0 0 28 23" xml:space="preserve">
<path fill="#FFFFFF" d="M28,2.9c-1,0.5-2.1,0.8-3.3,0.9c1.2-0.7,2.1-1.8,2.5-3.2c-1.1,0.7-2.3,1.1-3.6,1.4c-1-1.1-2.5-1.8-4.2-1.8
	c-3.2,0-5.7,2.6-5.7,5.7c0,0.5,0,0.9,0.1,1.3c-4.8-0.2-9-2.5-11.8-6C1.4,2.1,1.2,3.1,1.2,4.2c0,2,1.1,3.8,2.6,4.8
	c-0.9,0-2.5-0.3-2.5-0.7c0,0,0,0,0,0.1c0,2.8,1.9,5.1,4.6,5.6c-0.5,0.1-1,0.2-1.5,0.2c-0.4,0-0.7,0-1.1-0.1C3.9,16.3,6,18,8.5,18
	c-2,1.5-4.4,2.5-7.1,2.5c-0.5,0-0.9,0-1.4-0.1C2.5,22,5.6,23,8.8,23c10.6,0,16.3-8.8,16.3-16.3c0-0.3,0-0.5,0-0.7
	C26.3,5.1,27.2,4.1,28,2.9"/>
</svg>
